<svg width="195" height="45" viewBox="0 0 195 45" fill="none" xmlns="http://www.w3.org/2000/svg">
<rect x="1" y="1" width="193" height="43" rx="21.5" stroke="black" stroke-width="2"/>
<path d="M78.3516 18.2949V21.1514H81.5332C82.1016 21.1514 82.5615 21.0459 82.9131 20.835C83.2705 20.6182 83.4492 20.2373 83.4492 19.6924C83.4492 19.0889 83.2148 18.6904 82.7461 18.4971C82.3418 18.3623 81.8262 18.2949 81.1992 18.2949H78.3516ZM78.3516 23.2959V26.75H81.5332C82.1016 26.75 82.5439 26.6738 82.8604 26.5215C83.4346 26.2402 83.7217 25.7012 83.7217 24.9043C83.7217 24.2305 83.4434 23.7676 82.8867 23.5156C82.5762 23.375 82.1396 23.3018 81.5771 23.2959H78.3516ZM82.0605 16.0449C83.6484 16.0684 84.7734 16.5283 85.4355 17.4248C85.834 17.9756 86.0332 18.6348 86.0332 19.4023C86.0332 20.1934 85.834 20.8291 85.4355 21.3096C85.2129 21.5791 84.8848 21.8252 84.4512 22.0479C85.1133 22.2881 85.6113 22.6689 85.9453 23.1904C86.2852 23.7119 86.4551 24.3447 86.4551 25.0889C86.4551 25.8564 86.2617 26.5449 85.875 27.1543C85.6289 27.5586 85.3213 27.8984 84.9521 28.1738C84.5361 28.4902 84.0439 28.707 83.4756 28.8242C82.9131 28.9414 82.3008 29 81.6387 29H75.7676V16.0449H82.0605ZM91.5586 21.2305C90.9785 21.2305 90.5273 21.4121 90.2051 21.7754C89.8887 22.1387 89.6895 22.6309 89.6074 23.252H93.501C93.46 22.5898 93.2578 22.0889 92.8945 21.749C92.5371 21.4033 92.0918 21.2305 91.5586 21.2305ZM91.5586 19.165C92.3555 19.165 93.0732 19.3145 93.7119 19.6133C94.3506 19.9121 94.8779 20.3838 95.2939 21.0283C95.6689 21.5967 95.9121 22.2559 96.0234 23.0059C96.0879 23.4453 96.1143 24.0781 96.1025 24.9043H89.5459C89.5811 25.8652 89.8828 26.5391 90.4512 26.9258C90.7969 27.166 91.2129 27.2861 91.6992 27.2861C92.2148 27.2861 92.6338 27.1396 92.9561 26.8467C93.1318 26.6885 93.2871 26.4688 93.4219 26.1875H95.9795C95.915 26.7559 95.6191 27.333 95.0918 27.9189C94.2715 28.8506 93.123 29.3164 91.6465 29.3164C90.4277 29.3164 89.3525 28.9238 88.4209 28.1387C87.4893 27.3535 87.0234 26.0762 87.0234 24.3066C87.0234 22.6484 87.4424 21.377 88.2803 20.4922C89.124 19.6074 90.2168 19.165 91.5586 19.165ZM101.162 26.9434C101.748 26.9434 102.243 26.7236 102.647 26.2842C103.052 25.8389 103.254 25.1328 103.254 24.166C103.254 23.2578 103.061 22.5664 102.674 22.0918C102.293 21.6172 101.78 21.3799 101.136 21.3799C100.257 21.3799 99.6504 21.793 99.3164 22.6191C99.1406 23.0586 99.0527 23.6006 99.0527 24.2451C99.0527 24.8018 99.1465 25.2969 99.334 25.7305C99.6738 26.5391 100.283 26.9434 101.162 26.9434ZM100.538 19.1914C101.019 19.1914 101.438 19.2646 101.795 19.4111C102.404 19.6631 102.896 20.126 103.271 20.7998V19.4199H105.706V28.5078C105.706 29.7441 105.498 30.6758 105.082 31.3027C104.367 32.3809 102.996 32.9199 100.969 32.9199C99.7441 32.9199 98.7451 32.6797 97.9717 32.1992C97.1982 31.7188 96.7705 31.001 96.6885 30.0459H99.4131C99.4834 30.3389 99.5977 30.5498 99.7559 30.6787C100.025 30.9072 100.479 31.0215 101.118 31.0215C102.021 31.0215 102.624 30.7197 102.929 30.1162C103.128 29.7295 103.228 29.0791 103.228 28.165V27.5498C102.987 27.96 102.729 28.2676 102.454 28.4727C101.956 28.8535 101.309 29.0439 100.512 29.0439C99.2812 29.0439 98.2969 28.6133 97.5586 27.752C96.8262 26.8848 96.46 25.7129 96.46 24.2363C96.46 22.8125 96.8145 21.6172 97.5234 20.6504C98.2324 19.6777 99.2373 19.1914 100.538 19.1914ZM109.878 18.2773H107.338V15.9658H109.878V18.2773ZM107.338 19.4199H109.878V29H107.338V19.4199ZM116.871 19.1914C117.861 19.1914 118.67 19.4521 119.297 19.9736C119.93 20.4893 120.246 21.3477 120.246 22.5488V29H117.68V23.1729C117.68 22.6689 117.612 22.2822 117.478 22.0127C117.231 21.5205 116.763 21.2744 116.071 21.2744C115.222 21.2744 114.639 21.6348 114.322 22.3555C114.158 22.7363 114.076 23.2227 114.076 23.8145V29H111.58V19.4375H113.997V20.835C114.319 20.3428 114.624 19.9883 114.911 19.7715C115.427 19.3848 116.08 19.1914 116.871 19.1914Z" fill="#050505"/>
</svg>
