<svg width="59" height="17" viewBox="0 0 59 17" fill="none" xmlns="http://www.w3.org/2000/svg">
<path d="M0 8.93298C0 6.22291 0.749773 4.1342 2.24932 2.66683C3.55327 1.38902 5.21219 0.75012 7.22608 0.75012C9.92091 0.75012 11.8913 1.60667 13.1373 3.31977C13.8255 4.28163 14.195 5.24701 14.2457 6.21589H10.8989C10.6816 5.47168 10.4027 4.91 10.0622 4.53088C9.45366 3.85687 8.55176 3.51987 7.35647 3.51987C6.13945 3.51987 5.17959 3.99729 4.47691 4.95213C3.77422 5.89995 3.42288 7.24446 3.42288 8.98564C3.42288 10.7268 3.79233 12.0327 4.53124 12.9033C5.27739 13.7669 6.22276 14.1987 7.36734 14.1987C8.5409 14.1987 9.43555 13.8266 10.0513 13.0823C10.3918 12.6821 10.6743 12.0819 10.8989 11.2815H14.2131C13.9233 12.9735 13.1808 14.3496 11.9855 15.4098C10.7975 16.4699 9.27256 17 7.4108 17C5.10715 17 3.2961 16.2839 1.97766 14.8516C0.659221 13.4123 0 11.4394 0 8.93298Z" fill="#333333"/>
<path d="M21.2037 4.79416C21.9354 4.79416 22.5982 4.91703 23.1923 5.16276C23.7935 5.40849 24.2861 5.78411 24.6701 6.28961C24.9961 6.71789 25.1953 7.1602 25.2677 7.61656C25.3402 8.0659 25.3764 8.8031 25.3764 9.82815V16.5682H22.2143V9.58593C22.2143 8.96809 22.1056 8.4696 21.8883 8.09047C21.6058 7.55689 21.0697 7.29009 20.2801 7.29009C19.4615 7.29009 18.8385 7.55689 18.4111 8.09047C17.9909 8.61704 17.7809 9.37179 17.7809 10.3547V16.5682H14.6948V1.09765H17.7809V6.58449C18.23 5.91751 18.748 5.45412 19.3347 5.19435C19.9288 4.92756 20.5518 4.79416 21.2037 4.79416Z" fill="#333333"/>
<path d="M29.607 3.71996H28.0368H26.4666V0.950215H29.607V3.71996ZM26.4666 5.08904H29.607V16.5682H26.4666V5.08904Z" fill="#333333"/>
<path d="M43.9976 4.83629C44.5191 4.83629 45.0335 4.93458 45.5406 5.13116C46.0477 5.32775 46.5077 5.67177 46.9206 6.16324C47.2538 6.56343 47.4784 7.05489 47.5943 7.63763C47.6667 8.02378 47.703 8.58896 47.703 9.33317L47.6812 16.5682H44.5083V9.25945C44.5083 8.82416 44.4358 8.46609 44.291 8.18526C44.0157 7.65167 43.5086 7.38487 42.7697 7.38487C41.9149 7.38487 41.3245 7.7289 40.9985 8.41695C40.8319 8.78203 40.7486 9.22084 40.7486 9.73337V16.5682H37.6299V9.73337C37.6299 9.05234 37.5575 8.55736 37.4126 8.24844C37.1518 7.69379 36.6411 7.41647 35.8805 7.41647C34.9967 7.41647 34.4026 7.69379 34.0984 8.24844C33.9318 8.56439 33.8485 9.03479 33.8485 9.65965V16.5682H30.7081V5.1101H33.7181V6.78459C34.102 6.18781 34.4642 5.76304 34.8047 5.51029C35.406 5.06095 36.1847 4.83629 37.1409 4.83629C38.0465 4.83629 38.7781 5.02936 39.3359 5.41551C39.7851 5.77358 40.1255 6.23345 40.3574 6.79512C40.763 6.12111 41.2665 5.62614 41.8678 5.3102C42.5053 4.99426 43.2152 4.83629 43.9976 4.83629Z" fill="#333333"/>
<path d="M53.3788 7.2585C52.6616 7.2585 52.1038 7.47614 51.7054 7.91144C51.3142 8.34674 51.0679 8.93649 50.9665 9.68071H55.7802C55.7295 8.88735 55.4796 8.28706 55.0305 7.87985C54.5886 7.46561 54.038 7.2585 53.3788 7.2585ZM53.3788 4.78363C54.364 4.78363 55.2514 4.96266 56.041 5.32073C56.8306 5.67879 57.4826 6.24398 57.997 7.01628C58.4606 7.6973 58.7612 8.48715 58.8989 9.38583C58.9785 9.9124 59.0111 10.6707 58.9967 11.6606H50.8904C50.9339 12.812 51.307 13.6194 52.0096 14.0828C52.437 14.3707 52.9514 14.5146 53.5527 14.5146C54.1901 14.5146 54.7081 14.3391 55.1065 13.988C55.3239 13.7985 55.5158 13.5352 55.6824 13.1982H58.8445C58.7648 13.8792 58.399 14.5708 57.747 15.2729C56.7328 16.3892 55.313 16.9473 53.4875 16.9473C51.9807 16.9473 50.6514 16.4769 49.4995 15.5361C48.3477 14.5953 47.7718 13.0648 47.7718 10.9445C47.7718 8.95756 48.2897 7.43402 49.3257 6.37386C50.3688 5.31371 51.7199 4.78363 53.3788 4.78363Z" fill="#333333"/>
</svg>
