<svg width="300" height="201" viewBox="0 0 300 201" fill="none" xmlns="http://www.w3.org/2000/svg">
<ellipse opacity="0.5" cx="265.152" cy="24.0909" rx="2.71444" ry="2.68057" transform="rotate(90 265.152 24.0909)" fill="#EAF362"/>
<ellipse opacity="0.5" cx="249.962" cy="24.0909" rx="2.71444" ry="2.68057" transform="rotate(90 249.962 24.0909)" fill="#EAF362"/>
<ellipse opacity="0.5" cx="249.962" cy="24.0909" rx="2.71444" ry="2.68057" transform="rotate(90 249.962 24.0909)" fill="#EAF362"/>
<ellipse opacity="0.5" cx="265.152" cy="41.2823" rx="2.71444" ry="2.68057" transform="rotate(90 265.152 41.2823)" fill="#EAF362"/>
<ellipse opacity="0.5" cx="249.962" cy="41.2823" rx="2.71444" ry="2.68057" transform="rotate(90 249.962 41.2823)" fill="#EAF362"/>
<ellipse opacity="0.5" cx="265.152" cy="57.5692" rx="2.71444" ry="2.68057" transform="rotate(90 265.152 57.5692)" fill="#EAF362"/>
<ellipse opacity="0.5" cx="249.962" cy="57.5692" rx="2.71444" ry="2.68057" transform="rotate(90 249.962 57.5692)" fill="#EAF362"/>
<ellipse opacity="0.5" cx="233.879" cy="24.0909" rx="2.71444" ry="2.68057" transform="rotate(90 233.879 24.0909)" fill="#EAF362"/>
<ellipse opacity="0.5" cx="218.69" cy="24.0909" rx="2.71444" ry="2.68057" transform="rotate(90 218.69 24.0909)" fill="#EAF362"/>
<ellipse opacity="0.5" cx="218.69" cy="24.0909" rx="2.71444" ry="2.68057" transform="rotate(90 218.69 24.0909)" fill="#EAF362"/>
<ellipse opacity="0.5" cx="233.879" cy="41.2823" rx="2.71444" ry="2.68057" transform="rotate(90 233.879 41.2823)" fill="#EAF362"/>
<ellipse opacity="0.5" cx="218.69" cy="41.2823" rx="2.71444" ry="2.68057" transform="rotate(90 218.69 41.2823)" fill="#EAF362"/>
<ellipse opacity="0.5" cx="233.879" cy="57.5692" rx="2.71444" ry="2.68057" transform="rotate(90 233.879 57.5692)" fill="#EAF362"/>
<ellipse opacity="0.5" cx="201.713" cy="24.0909" rx="2.71444" ry="2.68057" transform="rotate(90 201.713 24.0909)" fill="#EAF362"/>
<ellipse opacity="0.5" cx="282.129" cy="41.2823" rx="2.71444" ry="2.68057" transform="rotate(90 282.129 41.2823)" fill="#EAF362"/>
<ellipse opacity="0.5" cx="297.319" cy="57.5692" rx="2.71444" ry="2.68057" transform="rotate(90 297.319 57.5692)" fill="#EAF362"/>
<ellipse opacity="0.5" cx="282.129" cy="57.5692" rx="2.71444" ry="2.68057" transform="rotate(90 282.129 57.5692)" fill="#EAF362"/>
<ellipse opacity="0.5" cx="265.152" cy="74.7603" rx="2.71444" ry="2.68057" transform="rotate(90 265.152 74.7603)" fill="#EAF362"/>
<ellipse opacity="0.5" cx="249.962" cy="74.7603" rx="2.71444" ry="2.68057" transform="rotate(90 249.962 74.7603)" fill="#EAF362"/>
<ellipse opacity="0.5" cx="249.962" cy="74.7603" rx="2.71444" ry="2.68057" transform="rotate(90 249.962 74.7603)" fill="#EAF362"/>
<ellipse opacity="0.5" cx="265.152" cy="91.0472" rx="2.71444" ry="2.68057" transform="rotate(90 265.152 91.0472)" fill="#EAF362"/>
<ellipse opacity="0.5" cx="297.319" cy="74.7603" rx="2.71444" ry="2.68057" transform="rotate(90 297.319 74.7603)" fill="#EAF362"/>
<ellipse opacity="0.5" cx="282.129" cy="74.7603" rx="2.71444" ry="2.68057" transform="rotate(90 282.129 74.7603)" fill="#EAF362"/>
<ellipse opacity="0.5" cx="297.319" cy="91.0472" rx="2.71444" ry="2.68057" transform="rotate(90 297.319 91.0472)" fill="#EAF362"/>
<ellipse opacity="0.5" cx="282.129" cy="91.0472" rx="2.71444" ry="2.68057" transform="rotate(90 282.129 91.0472)" fill="#EAF362"/>
<ellipse opacity="0.5" cx="297.319" cy="108.239" rx="2.71444" ry="2.68057" transform="rotate(90 297.319 108.239)" fill="#EAF362"/>
<ellipse opacity="0.5" cx="282.129" cy="108.239" rx="2.71444" ry="2.68057" transform="rotate(90 282.129 108.239)" fill="#EAF362"/>
<ellipse opacity="0.5" cx="297.319" cy="57.5692" rx="2.71444" ry="2.68057" transform="rotate(90 297.319 57.5692)" fill="#EAF362"/>
<ellipse opacity="0.5" cx="297.319" cy="74.7603" rx="2.71444" ry="2.68057" transform="rotate(90 297.319 74.7603)" fill="#EAF362"/>
<ellipse opacity="0.5" cx="297.319" cy="74.7603" rx="2.71444" ry="2.68057" transform="rotate(90 297.319 74.7603)" fill="#EAF362"/>
<ellipse opacity="0.5" cx="297.319" cy="91.0472" rx="2.71444" ry="2.68057" transform="rotate(90 297.319 91.0472)" fill="#EAF362"/>
<ellipse opacity="0.5" cx="297.319" cy="108.239" rx="2.71444" ry="2.68057" transform="rotate(90 297.319 108.239)" fill="#EAF362"/>
<path opacity="0.33" d="M68.5599 108.082C44.2733 89.3796 38.9653 55.054 39.3472 40.229C37.3541 20.2723 56.5312 -7.09683 68.5599 18.5617C97.0163 79.2622 253.797 32.6541 275.913 79.0021C286.796 101.81 272.476 130.319 234.099 168.522C195.721 206.725 98.9182 131.46 68.5599 108.082Z" fill="#FFCC00"/>
<ellipse opacity="0.5" cx="2.57894" cy="49.2192" rx="2.57894" ry="2.61153" fill="#E3F02D"/>
<ellipse opacity="0.5" cx="2.57894" cy="64.0178" rx="2.57894" ry="2.61153" fill="#E3F02D"/>
<ellipse opacity="0.5" cx="2.57894" cy="64.0178" rx="2.57894" ry="2.61153" fill="#E3F02D"/>
<ellipse opacity="0.5" cx="18.9123" cy="49.2192" rx="2.57894" ry="2.61153" fill="#E3F02D"/>
<ellipse opacity="0.5" cx="18.9123" cy="64.0178" rx="2.57894" ry="2.61153" fill="#E3F02D"/>
<ellipse opacity="0.5" cx="34.3858" cy="49.2192" rx="2.57894" ry="2.61153" fill="#E3F02D"/>
<ellipse opacity="0.5" cx="34.3858" cy="64.0178" rx="2.57894" ry="2.61153" fill="#E3F02D"/>
<ellipse opacity="0.5" cx="2.57894" cy="79.687" rx="2.57894" ry="2.61153" fill="#E3F02D"/>
<ellipse opacity="0.5" cx="2.57894" cy="94.4856" rx="2.57894" ry="2.61153" fill="#E3F02D"/>
<ellipse opacity="0.5" cx="2.57894" cy="94.4856" rx="2.57894" ry="2.61153" fill="#E3F02D"/>
<ellipse opacity="0.5" cx="18.9123" cy="79.687" rx="2.57894" ry="2.61153" fill="#E3F02D"/>
<ellipse opacity="0.5" cx="18.9123" cy="94.4856" rx="2.57894" ry="2.61153" fill="#E3F02D"/>
<ellipse opacity="0.5" cx="34.3858" cy="79.687" rx="2.57894" ry="2.61153" fill="#E3F02D"/>
<ellipse opacity="0.5" cx="2.57894" cy="111.025" rx="2.57894" ry="2.61153" fill="#E3F02D"/>
<ellipse opacity="0.5" cx="18.9123" cy="32.6792" rx="2.57894" ry="2.61153" fill="#E3F02D"/>
<ellipse opacity="0.5" cx="34.3858" cy="17.8806" rx="2.57894" ry="2.61153" fill="#E3F02D"/>
<ellipse opacity="0.5" cx="34.3858" cy="32.6792" rx="2.57894" ry="2.61153" fill="#E3F02D"/>
<ellipse opacity="0.5" cx="50.7191" cy="49.2192" rx="2.57894" ry="2.61153" fill="#E3F02D"/>
<ellipse opacity="0.5" cx="50.7191" cy="64.0178" rx="2.57894" ry="2.61153" fill="#E3F02D"/>
<ellipse opacity="0.5" cx="50.7191" cy="64.0178" rx="2.57894" ry="2.61153" fill="#E3F02D"/>
<ellipse opacity="0.5" cx="66.1928" cy="49.2192" rx="2.57894" ry="2.61153" fill="#E3F02D"/>
<ellipse opacity="0.5" cx="50.7191" cy="17.8806" rx="2.57894" ry="2.61153" fill="#E3F02D"/>
<ellipse opacity="0.5" cx="50.7191" cy="32.6792" rx="2.57894" ry="2.61153" fill="#E3F02D"/>
<ellipse opacity="0.5" cx="66.1928" cy="17.8806" rx="2.57894" ry="2.61153" fill="#E3F02D"/>
<ellipse opacity="0.5" cx="66.1928" cy="32.6792" rx="2.57894" ry="2.61153" fill="#E3F02D"/>
<ellipse opacity="0.5" cx="82.5262" cy="17.8806" rx="2.57894" ry="2.61153" fill="#E3F02D"/>
<ellipse opacity="0.5" cx="82.5262" cy="32.6792" rx="2.57894" ry="2.61153" fill="#E3F02D"/>
<ellipse opacity="0.5" cx="34.3858" cy="17.8806" rx="2.57894" ry="2.61153" fill="#E3F02D"/>
<ellipse opacity="0.5" cx="50.7191" cy="17.8806" rx="2.57894" ry="2.61153" fill="#E3F02D"/>
<ellipse opacity="0.5" cx="50.7191" cy="17.8806" rx="2.57894" ry="2.61153" fill="#E3F02D"/>
<ellipse opacity="0.5" cx="66.1928" cy="17.8806" rx="2.57894" ry="2.61153" fill="#E3F02D"/>
<ellipse opacity="0.5" cx="82.5262" cy="17.8806" rx="2.57894" ry="2.61153" fill="#E3F02D"/>
<path fill-rule="evenodd" clip-rule="evenodd" d="M165.662 27.2107L156.181 13.6642C155.275 10.0185 154.122 6.9659 152.723 4.50639C152.215 3.92239 151.178 3.20934 151.32 5.59783C151.461 7.98632 152 10.0086 152 11.5C152 12 152 12.5 151.5 13C150.9 13.5996 148.901 12.8805 153.186 16.7022L158.392 30.0454L165.662 27.2107Z" fill="#F2BD8B"/>
<path fill-rule="evenodd" clip-rule="evenodd" d="M196.866 39.8301C193.696 40.1077 190.937 39.6307 189.966 38.7799C187.563 36.6742 192.43 26.3416 196.587 23.3913C200.744 20.4411 212.617 24.2032 209.171 32.4525C207.985 35.2922 205.624 37.1762 202.941 38.34L198.741 54.3388L189.918 49.912L196.866 39.8301Z" fill="#F2BD8B"/>
<path fill-rule="evenodd" clip-rule="evenodd" d="M197.939 22.1501C198.26 21.7038 198.225 21.3883 200.851 20.9942C203.477 20.6 207.417 20.5586 210.219 22.843C213.855 25.8077 214.118 29.3401 215.034 31.4528C215.859 33.3574 217.217 34.2126 217.322 36.1145C217.427 38.0164 215.744 42.4926 214.16 43.8132C211.976 45.635 209.66 45.2585 207.862 45.197C204.778 45.0915 201.847 42.0981 201.862 41.8535C201.981 39.9619 200.615 33.7725 199.393 30.8471C198.495 28.6959 196.431 24.2451 197.939 22.1501Z" fill="url(#paint0_linear)"/>
<mask id="mask0" mask-type="alpha" maskUnits="userSpaceOnUse" x="197" y="20" width="21" height="26">
<path fill-rule="evenodd" clip-rule="evenodd" d="M197.939 22.1501C198.26 21.7038 198.225 21.3883 200.851 20.9942C203.477 20.6 207.417 20.5586 210.219 22.843C213.855 25.8077 214.118 29.3401 215.034 31.4528C215.859 33.3574 217.217 34.2126 217.322 36.1145C217.427 38.0164 215.744 42.4926 214.16 43.8132C211.976 45.635 209.66 45.2585 207.862 45.197C204.778 45.0915 201.847 42.0981 201.862 41.8535C201.981 39.9619 200.615 33.7725 199.393 30.8471C198.495 28.6959 196.431 24.2451 197.939 22.1501Z" fill="white"/>
</mask>
<g mask="url(#mask0)">
<path fill-rule="evenodd" clip-rule="evenodd" d="M204.48 39.5786C211.351 36.4184 215.539 30.5504 215.539 30.5504L216.402 32.0041C216.402 32.0041 211.347 38.1765 204.48 39.5786ZM201.417 41.6733C211.319 39.0307 216.381 33.0178 216.381 33.0178L217.635 34.1971C217.635 34.1971 211.769 40.8178 201.417 41.6733Z" fill="black" fill-opacity="0.2"/>
</g>
<path fill-rule="evenodd" clip-rule="evenodd" d="M196.096 80.283L185.431 140.046L179.172 189.519L174.519 191.294L177.225 87.482L196.096 80.283Z" fill="#F5D1AF"/>
<path fill-rule="evenodd" clip-rule="evenodd" d="M179.125 187.426C180.033 186.687 181.393 186.657 182.098 187.591C182.464 188.075 182.796 188.575 182.938 188.954C183.333 190.002 183.742 192.145 183.742 192.145C182.525 192.603 161.873 200.383 161.873 200.383C161.873 200.383 159.959 197.888 161.711 196.971C163.463 196.055 164.61 195.416 164.61 195.416L172.64 187.481C173.04 187.085 173.689 187.098 174.073 187.51L174.912 188.408C174.912 188.408 176.911 188.56 177.974 188.16C178.32 188.029 178.73 187.747 179.125 187.426Z" fill="url(#paint1_linear)"/>
<path fill-rule="evenodd" clip-rule="evenodd" d="M182.714 180.628L172.72 181.302C172.72 181.302 171.976 161.204 172.559 136.504C173.141 111.805 175.548 88.1217 175.548 88.1217L200.887 78.4553C200.887 78.4553 199.348 107.839 194.781 133.116C190.214 158.393 182.714 180.628 182.714 180.628Z" fill="#333333"/>
<path fill-rule="evenodd" clip-rule="evenodd" d="M207.277 90.52C210.183 108.835 215.787 132.234 216.316 132.957C216.668 133.438 229.361 137.745 254.395 145.878L253.321 150.317C223.469 145.955 207.739 142.571 206.132 140.165C203.721 136.556 191.686 108.042 187.024 90.52H207.277Z" fill="#F5D1AF"/>
<path fill-rule="evenodd" clip-rule="evenodd" d="M245.595 142.041L243.704 149.19C221.376 151.173 207.695 149.74 202.661 144.892C197.627 140.043 191.89 121.919 185.45 90.52H211.27C215.351 116.231 217.632 129.627 218.114 130.706C218.596 131.786 227.756 135.564 245.595 142.041Z" fill="#4F4F4F"/>
<path fill-rule="evenodd" clip-rule="evenodd" d="M252.785 146.326C252.615 145.178 253.277 144.005 254.429 143.869C255.037 143.797 255.642 143.763 256.043 143.834C257.14 144.027 259.181 144.77 259.181 144.77C258.952 146.065 255.077 168.047 255.077 168.047C255.077 168.047 251.968 168.435 252.077 166.438C252.187 164.442 252.225 163.116 252.225 163.116L249.529 152.03C249.397 151.488 249.735 150.942 250.28 150.819L251.484 150.546C251.484 150.546 252.634 148.883 252.833 147.751C252.9 147.372 252.863 146.851 252.785 146.326Z" fill="url(#paint2_linear)"/>
<path fill-rule="evenodd" clip-rule="evenodd" d="M218.454 76.6579C218.454 76.6579 219.261 109.337 220.056 111.995C220.444 113.295 224.177 117.66 226.841 120.24C227.91 121.276 227.236 122.269 226.734 122.479C222.65 124.195 220.658 121.054 217.699 119.017C214.456 116.785 213.989 121.517 211.41 119.798C212.582 117.993 215.172 114.7 214.615 112.17C214.243 110.483 209.506 75.2331 209.506 75.2331L218.454 76.6579Z" fill="#F2BD8B"/>
<path fill-rule="evenodd" clip-rule="evenodd" d="M198.495 64.578L199.625 61.0837C180.666 52.5713 171.399 21.618 164.263 18.7655C161.647 17.7194 159.99 19.489 159.312 18.3525L155.255 22.5191C156.053 23.44 154.139 24.8809 154.796 28.5645C155.452 32.2481 175.075 61.1815 198.495 64.578Z" fill="#36B74C"/>
<path fill-rule="evenodd" clip-rule="evenodd" d="M199.906 43.1045C202.106 43.306 203.724 45.2526 203.52 47.4522L203.508 47.5776C209.248 53.759 223.288 71.9443 222.87 101.58C222.827 104.679 221.748 106.167 220.887 107.356C220.298 108.169 219.81 108.843 219.824 109.796L213.555 110.497C213.667 109.813 212.996 109.169 212.131 108.339C210.873 107.131 209.203 105.529 208.929 102.833C208.665 100.236 208.187 96.9578 207.575 93.2974C206.736 97.8347 205.212 101.885 202.795 105.046C196.821 112.858 171.899 99.1563 170.56 89.9745C169.845 85.0749 172.576 81.5049 176.187 76.7833C180.808 70.7419 186.871 62.8153 189.005 47.8062C188.966 47.5138 188.959 47.2125 188.987 46.9063L189.059 46.1276C189.263 43.9279 191.212 42.3081 193.412 42.5096L199.906 43.1045Z" fill="#4CD964"/>
<g style="mix-blend-mode:darken">
<path fill-rule="evenodd" clip-rule="evenodd" d="M205.5 76C205.5 76 206.5 87 207.5 93.5L207 97.5L205.5 100.5L204.364 96.3825C202.506 89.6467 202.905 82.4877 205.5 76Z" fill="black" fill-opacity="0.1"/>
</g>
<path fill-rule="evenodd" clip-rule="evenodd" d="M134.651 34.8616L137.907 18.5887C137.279 14.8834 137.113 11.6195 137.409 8.79717C137.64 8.05493 138.271 6.02533 139.096 8.26744C139.921 10.5095 140.339 11.8336 141.375 14.3509C141.582 15.6095 142.186 15.2571 143.446 15.3997C144.286 15.4948 144.275 17.4975 141.86 20.1394L142.432 34.4744L134.651 34.8616Z" fill="#B28B67"/>
<path fill-rule="evenodd" clip-rule="evenodd" d="M102.4 52.1192C105.443 52.9993 108.223 53.0649 109.335 52.4204C112.102 50.8178 109.322 39.703 105.812 35.9892C102.301 32.2755 89.9156 33.6594 91.703 42.4473C92.3201 45.4814 94.2832 47.8003 96.7031 49.4702L97.7223 65.9814L107.254 63.3448L102.4 52.1192Z" fill="#B28B67"/>
<path fill-rule="evenodd" clip-rule="evenodd" d="M86.7381 40.7266C86.3436 40.5028 86.053 40.1081 85.7913 39.7294C85.5195 39.336 85.2507 38.9369 85.0249 38.5116C84.5736 37.6619 84.2837 36.6214 84.7288 35.7415C85.0857 35.0359 85.7854 34.5702 86.4804 34.3188C86.9435 34.1513 87.448 34.0837 87.9433 34.1088C88.4346 34.1337 88.9049 34.3242 89.3923 34.3883C89.1391 33.4081 89.0222 32.3415 89.2819 31.373C89.5318 30.441 90.1593 29.7833 90.9827 29.4274C91.8279 29.0621 92.7533 29.0298 93.659 29.2418C93.8857 29.2949 94.1121 29.3537 94.3342 29.4296C94.5201 29.4932 94.7183 29.5769 94.9138 29.5696C95.1318 29.5615 95.2002 29.4141 95.2914 29.2267C95.3984 29.0068 95.531 28.8026 95.6786 28.6133C96.3317 27.776 97.3404 27.227 98.3936 27.3292C98.8788 27.3763 99.3845 27.5444 99.7911 27.8563C100.154 28.1343 100.497 28.6394 100.931 28.7829C101.115 28.8439 101.187 28.6758 101.3 28.5349C101.47 28.3233 101.626 28.0985 101.8 27.8902C102.044 27.5977 102.328 27.3509 102.656 27.1722C103.135 26.9106 103.851 26.7427 104.186 27.3803C104.311 27.6198 104.344 27.9038 104.397 28.1654C104.471 28.5245 104.543 28.8839 104.61 29.2441C104.66 29.5177 104.703 29.7837 104.725 30.0599C104.737 30.2071 104.726 30.4909 104.824 30.6145C104.947 30.7691 105.262 30.5748 105.41 30.5404C105.702 30.4725 106.007 30.4434 106.309 30.4942C106.542 30.5336 106.8 30.6155 106.953 30.8311C107.048 30.9635 107.075 31.1186 107.092 31.2772C107.112 31.4674 107.173 31.5542 107.247 31.7314C107.582 31.431 108.808 30.63 109.172 31.2857C109.293 31.504 109.238 31.8039 109.194 32.0282C109.118 32.4218 108.981 32.8003 108.834 33.1656C108.528 33.9276 108.105 34.6289 107.617 35.2636C108.429 35.3881 108.882 36.2927 108.414 37.0357C108.208 37.3638 107.852 37.5226 107.499 37.6028C107.37 37.6322 107.172 37.6336 107.078 37.6838C107.027 37.7107 106.982 37.773 106.909 37.7988C106.427 37.9688 105.839 38.0027 105.328 38.0255C104.417 38.0661 103.493 37.8807 102.658 37.4398C102.444 37.3267 102.278 37.2733 102.05 37.3389C101.85 37.3964 101.669 37.5062 101.47 37.5667C100.944 37.7269 100.395 37.5975 99.8548 37.5595C100.01 38.2387 100.025 39.0299 99.9206 39.7087C99.8352 40.2621 99.3922 40.4617 98.9494 40.6306C97.5334 41.1711 96.0314 41.4206 94.576 41.8254C96.0745 41.7572 97.5676 41.4869 99.0693 41.4791C99.748 41.4755 99.3847 42.0387 99.1972 42.4113C98.8883 43.0249 98.7259 43.7242 98.6738 44.428C97.7332 43.7111 96.3491 43.4502 95.3465 44.0277C94.2387 44.6657 93.8494 46.5273 94.9362 47.4875C95.5672 48.0449 96.4396 48.0862 97.1859 48.1942C96.8175 48.8829 96.9146 49.7227 96.7897 50.4872C96.7281 50.8643 96.6164 51.3022 96.304 51.5141C96.1884 51.5925 96.0399 51.6376 95.9684 51.7703C95.8797 51.9348 95.8902 52.0883 95.762 52.244C95.2503 52.8655 94.2489 53.1055 93.5251 52.6794C92.8705 52.2941 92.7726 51.4248 93.0501 50.7737C92.2947 50.6761 90.9605 50.6508 90.935 49.5118C89.4415 49.8191 85.2171 48.4024 86.6996 46.1032C85.4491 45.7856 84.0401 44.5537 84.3665 43.0338C84.6179 41.8635 85.7338 41.0627 86.7381 40.7266Z" fill="#191847"/>
<path fill-rule="evenodd" clip-rule="evenodd" d="M88.1958 99.7283C88.9428 110.053 137.069 140.451 137.35 141.304C137.537 141.872 122.37 177.251 122.37 177.251L126.577 178.907C126.577 178.907 149.84 141.438 148.646 137.446C146.935 131.73 111.305 99.8381 111.305 99.8381L88.1958 99.7283Z" fill="#B28B67"/>
<path fill-rule="evenodd" clip-rule="evenodd" d="M123.477 171.925L130.346 174.456C144.829 157.909 150.506 144.255 149.471 137.298C148.436 130.342 112.259 99.7534 112.259 99.7534L87.7033 99.7534C88.5411 123.664 133.148 141.395 133.745 142.414C134.341 143.433 128.47 153.412 123.477 171.925Z" fill="#56CCF2"/>
<path fill-rule="evenodd" clip-rule="evenodd" d="M118.136 180.641L120.288 175.703C120.545 175.115 121.284 174.915 121.856 175.205C124.997 176.801 129.572 176.871 129.572 176.871C132.569 181.199 137.588 184.753 140.334 186.498C141.349 187.144 141.65 188.525 140.945 189.501L140.508 190.106L126.598 185.043L118.484 182.09L118.136 180.641Z" fill="url(#paint3_linear)"/>
<path fill-rule="evenodd" clip-rule="evenodd" d="M93.7294 99.7283L72.2905 151.847L51.2194 195.909H56.1907L110.581 99.7283H93.7294Z" fill="#997659"/>
<path fill-rule="evenodd" clip-rule="evenodd" d="M49.8124 198.741L50.1467 193.283C50.186 192.641 50.8154 192.199 51.4537 192.278C54.9497 192.706 59.2693 191.189 59.2693 191.189C63.5714 194.275 69.5132 195.92 72.6865 196.629C73.8567 196.89 74.6093 198.079 74.286 199.234L74.0715 200H59.2693H50.6347L49.8124 198.741Z" fill="url(#paint4_linear)"/>
<path fill-rule="evenodd" clip-rule="evenodd" d="M53.1221 186.756L64.1685 188.854C72.7095 176.138 108.454 124 112.373 99.7283H87.7814C74.6937 117.274 61.2635 173.83 53.1221 186.756Z" fill="#2D9CDB"/>
<path fill-rule="evenodd" clip-rule="evenodd" d="M59.0389 96.8251C59.0389 96.8251 47.3734 118.48 45.4289 120.444C44.4783 121.404 39.1394 123.474 35.5793 124.48C34.1503 124.884 34.2829 126.078 34.6282 126.503C37.4367 129.955 40.6647 128.136 44.2326 127.749C48.1416 127.325 46.3445 131.715 49.4271 131.427C49.2339 129.28 48.4824 125.148 50.157 123.185C51.2734 121.876 67.2221 99.689 67.2221 99.689L59.0389 96.8251Z" fill="#B28B67"/>
<path fill-rule="evenodd" clip-rule="evenodd" d="M98.7188 73.0662L97.596 69.5653C107.05 54.574 128.097 45.8934 137.321 27.8653L142.695 31.0881C143.292 59.9234 117.67 70.8588 98.7188 73.0662Z" fill="url(#paint5_linear)"/>
<path fill-rule="evenodd" clip-rule="evenodd" d="M85.4431 104.763C85.4431 104.763 106.99 104.763 117.143 104.763C118.591 104.763 118.318 102.645 118.109 101.577C115.692 89.2417 106.259 75.9454 106.259 58.387L97.115 56.9351C89.552 69.2523 86.9366 84.4173 85.4431 104.763Z" fill="url(#paint6_linear)"/>
<path fill-rule="evenodd" clip-rule="evenodd" d="M84.2006 68.143C83.5536 67.7366 82.9876 67.15 82.543 66.3375C79.2009 60.2309 80.4079 56.8688 83.9795 55.7637C85.9434 55.1559 87.7905 55.5707 90.0016 56.0673C91.8114 56.4737 93.8652 56.9349 96.4265 56.9349C96.6749 56.9349 96.9009 56.9518 97.106 56.984L100.139 57.1593C100.139 57.1593 112.458 99.4373 106.934 113.574H78.3998C79.0524 103.605 81.7146 92.8078 85.0558 82.9299C75.7408 94.3666 64.29 107.646 56.9776 113.378L50.6921 110.755C58.7439 89.0944 73.2122 75.6839 84.2006 68.143Z" fill="url(#paint7_linear)"/>
<path fill-rule="evenodd" clip-rule="evenodd" d="M80.0571 113.803C81.9264 109.256 83.8432 103.95 85.6878 98.47C86.3745 104.505 87.518 110.566 89.4219 113.803H80.0571Z" fill="black" fill-opacity="0.1"/>
<defs>
<linearGradient id="paint0_linear" x1="211.209" y1="23.1271" x2="201.444" y2="42.589" gradientUnits="userSpaceOnUse">
<stop stop-color="#F136EE"/>
<stop offset="1" stop-color="#FB5154"/>
</linearGradient>
<linearGradient id="paint1_linear" x1="169.781" y1="188.111" x2="172.847" y2="196.249" gradientUnits="userSpaceOnUse">
<stop stop-color="#F733EE"/>
<stop offset="1" stop-color="#0102EA"/>
</linearGradient>
<linearGradient id="paint2_linear" x1="248.615" y1="154.864" x2="257.136" y2="156.367" gradientUnits="userSpaceOnUse">
<stop stop-color="#F733EE"/>
<stop offset="1" stop-color="#0102EA"/>
</linearGradient>
<linearGradient id="paint3_linear" x1="132.366" y1="177.888" x2="129.391" y2="186.06" gradientUnits="userSpaceOnUse">
<stop stop-color="#E3F02D"/>
<stop offset="1" stop-color="#66FC77"/>
</linearGradient>
<linearGradient id="paint4_linear" x1="62.2417" y1="191.189" x2="62.2417" y2="200" gradientUnits="userSpaceOnUse">
<stop stop-color="#E3F02D"/>
<stop offset="1" stop-color="#66FC77"/>
</linearGradient>
<linearGradient id="paint5_linear" x1="96.5912" y1="51.7017" x2="143.705" y2="49.0517" gradientUnits="userSpaceOnUse">
<stop stop-color="#F136EE"/>
<stop offset="1" stop-color="#FB5154"/>
</linearGradient>
<linearGradient id="paint6_linear" x1="101.86" y1="56.9351" x2="101.86" y2="104.763" gradientUnits="userSpaceOnUse">
<stop stop-color="#E3F02D"/>
<stop offset="1" stop-color="#66FC77"/>
</linearGradient>
<linearGradient id="paint7_linear" x1="79.5257" y1="55.4609" x2="79.5257" y2="113.574" gradientUnits="userSpaceOnUse">
<stop stop-color="#F136EE"/>
<stop offset="1" stop-color="#FB5154"/>
</linearGradient>
</defs>
</svg>
