<svg width="59" height="22" viewBox="0 0 59 22" fill="none" xmlns="http://www.w3.org/2000/svg">
<path d="M0 13.933C0 11.2229 0.749773 9.1342 2.24932 7.66683C3.55327 6.38902 5.21219 5.75012 7.22608 5.75012C9.92091 5.75012 11.8913 6.60667 13.1373 8.31977C13.8255 9.28163 14.195 10.247 14.2457 11.2159H10.8989C10.6816 10.4717 10.4027 9.91 10.0622 9.53088C9.45366 8.85687 8.55176 8.51987 7.35647 8.51987C6.13945 8.51987 5.17959 8.99729 4.47691 9.95213C3.77422 10.9 3.42288 12.2445 3.42288 13.9856C3.42288 15.7268 3.79233 17.0327 4.53124 17.9033C5.27739 18.7669 6.22276 19.1987 7.36734 19.1987C8.5409 19.1987 9.43555 18.8266 10.0513 18.0823C10.3918 17.6821 10.6743 17.0819 10.8989 16.2815H14.2131C13.9233 17.9735 13.1808 19.3496 11.9855 20.4098C10.7975 21.4699 9.27256 22 7.4108 22C5.10715 22 3.2961 21.2839 1.97766 19.8516C0.659221 18.4123 0 16.4394 0 13.933Z" fill="url(#paint0_linear)"/>
<path d="M21.2037 9.79416C21.9354 9.79416 22.5982 9.91703 23.1923 10.1628C23.7935 10.4085 24.2861 10.7841 24.6701 11.2896C24.9961 11.7179 25.1953 12.1602 25.2677 12.6166C25.3402 13.0659 25.3764 13.8031 25.3764 14.8281V21.5682H22.2143V14.5859C22.2143 13.9681 22.1056 13.4696 21.8883 13.0905C21.6058 12.5569 21.0697 12.2901 20.2801 12.2901C19.4615 12.2901 18.8385 12.5569 18.4111 13.0905C17.9909 13.617 17.7809 14.3718 17.7809 15.3547V21.5682H14.6948V6.09765H17.7809V11.5845C18.23 10.9175 18.748 10.4541 19.3347 10.1944C19.9288 9.92756 20.5518 9.79416 21.2037 9.79416Z" fill="url(#paint1_linear)"/>
<path d="M29.607 8.71996H28.0368H26.4666V5.95022H29.607V8.71996ZM26.4666 10.089H29.607V21.5682H26.4666V10.089Z" fill="url(#paint2_linear)"/>
<path d="M43.9976 9.83629C44.5191 9.83629 45.0335 9.93458 45.5406 10.1312C46.0477 10.3277 46.5077 10.6718 46.9206 11.1632C47.2538 11.5634 47.4784 12.0549 47.5943 12.6376C47.6667 13.0238 47.703 13.589 47.703 14.3332L47.6812 21.5682H44.5083V14.2595C44.5083 13.8242 44.4358 13.4661 44.291 13.1853C44.0157 12.6517 43.5086 12.3849 42.7697 12.3849C41.9149 12.3849 41.3245 12.7289 40.9985 13.4169C40.8319 13.782 40.7486 14.2208 40.7486 14.7334V21.5682H37.6299V14.7334C37.6299 14.0523 37.5575 13.5574 37.4126 13.2484C37.1518 12.6938 36.6411 12.4165 35.8805 12.4165C34.9967 12.4165 34.4026 12.6938 34.0984 13.2484C33.9318 13.5644 33.8485 14.0348 33.8485 14.6596V21.5682H30.7081V10.1101H33.7181V11.7846C34.102 11.1878 34.4642 10.763 34.8047 10.5103C35.406 10.061 36.1847 9.83629 37.1409 9.83629C38.0465 9.83629 38.7781 10.0294 39.3359 10.4155C39.7851 10.7736 40.1255 11.2334 40.3574 11.7951C40.763 11.1211 41.2665 10.6261 41.8678 10.3102C42.5053 9.99426 43.2152 9.83629 43.9976 9.83629Z" fill="url(#paint3_linear)"/>
<path d="M53.3788 12.2585C52.6616 12.2585 52.1038 12.4761 51.7054 12.9114C51.3142 13.3467 51.0679 13.9365 50.9665 14.6807H55.7802C55.7295 13.8873 55.4796 13.2871 55.0305 12.8798C54.5886 12.4656 54.038 12.2585 53.3788 12.2585ZM53.3788 9.78363C54.364 9.78363 55.2514 9.96266 56.041 10.3207C56.8306 10.6788 57.4826 11.244 57.997 12.0163C58.4606 12.6973 58.7612 13.4872 58.8989 14.3858C58.9785 14.9124 59.0111 15.6707 58.9967 16.6606H50.8904C50.9339 17.812 51.307 18.6194 52.0096 19.0828C52.437 19.3707 52.9514 19.5146 53.5527 19.5146C54.1901 19.5146 54.7081 19.3391 55.1065 18.988C55.3239 18.7985 55.5158 18.5352 55.6824 18.1982H58.8445C58.7648 18.8792 58.399 19.5708 57.747 20.2729C56.7328 21.3892 55.313 21.9473 53.4875 21.9473C51.9807 21.9473 50.6514 21.4769 49.4995 20.5361C48.3477 19.5953 47.7718 18.0648 47.7718 15.9445C47.7718 13.9576 48.2897 12.434 49.3257 11.3739C50.3688 10.3137 51.7199 9.78363 53.3788 9.78363Z" fill="url(#paint4_linear)"/>
<circle cx="28" cy="5" r="4" fill="url(#paint5_linear)"/>
<defs>
<linearGradient id="paint0_linear" x1="29.5" y1="0" x2="29.5" y2="22" gradientUnits="userSpaceOnUse">
<stop stop-color="#F136EE"/>
<stop offset="1" stop-color="#FB5154"/>
</linearGradient>
<linearGradient id="paint1_linear" x1="29.5" y1="0" x2="29.5" y2="22" gradientUnits="userSpaceOnUse">
<stop stop-color="#F136EE"/>
<stop offset="1" stop-color="#FB5154"/>
</linearGradient>
<linearGradient id="paint2_linear" x1="29.5" y1="0" x2="29.5" y2="22" gradientUnits="userSpaceOnUse">
<stop stop-color="#F136EE"/>
<stop offset="1" stop-color="#FB5154"/>
</linearGradient>
<linearGradient id="paint3_linear" x1="29.5" y1="0" x2="29.5" y2="22" gradientUnits="userSpaceOnUse">
<stop stop-color="#F136EE"/>
<stop offset="1" stop-color="#FB5154"/>
</linearGradient>
<linearGradient id="paint4_linear" x1="29.5" y1="0" x2="29.5" y2="22" gradientUnits="userSpaceOnUse">
<stop stop-color="#F136EE"/>
<stop offset="1" stop-color="#FB5154"/>
</linearGradient>
<linearGradient id="paint5_linear" x1="28" y1="1" x2="28" y2="9" gradientUnits="userSpaceOnUse">
<stop stop-color="#F136EE"/>
<stop offset="1" stop-color="#FB5154"/>
</linearGradient>
</defs>
</svg>
