<svg width="251" height="220" viewBox="0 0 251 220" fill="none" xmlns="http://www.w3.org/2000/svg">
<path d="M2.25 192.008C2.25 185.977 3.86719 181.328 7.10156 178.062C9.91406 175.219 13.4922 173.797 17.8359 173.797C23.6484 173.797 27.8984 175.703 30.5859 179.516C32.0703 181.656 32.8672 183.805 32.9766 185.961H25.7578C25.2891 184.305 24.6875 183.055 23.9531 182.211C22.6406 180.711 20.6953 179.961 18.1172 179.961C15.4922 179.961 13.4219 181.023 11.9062 183.148C10.3906 185.258 9.63281 188.25 9.63281 192.125C9.63281 196 10.4297 198.906 12.0234 200.844C13.6328 202.766 15.6719 203.727 18.1406 203.727C20.6719 203.727 22.6016 202.898 23.9297 201.242C24.6641 200.352 25.2734 199.016 25.7578 197.234H32.9062C32.2812 201 30.6797 204.062 28.1016 206.422C25.5391 208.781 22.25 209.961 18.2344 209.961C13.2656 209.961 9.35938 208.367 6.51562 205.18C3.67188 201.977 2.25 197.586 2.25 192.008ZM47.9844 182.797C49.5625 182.797 50.9922 183.07 52.2734 183.617C53.5703 184.164 54.6328 185 55.4609 186.125C56.1641 187.078 56.5938 188.062 56.75 189.078C56.9062 190.078 56.9844 191.719 56.9844 194V209H50.1641V193.461C50.1641 192.086 49.9297 190.977 49.4609 190.133C48.8516 188.945 47.6953 188.352 45.9922 188.352C44.2266 188.352 42.8828 188.945 41.9609 190.133C41.0547 191.305 40.6016 192.984 40.6016 195.172V209H33.9453V174.57H40.6016V186.781C41.5703 185.297 42.6875 184.266 43.9531 183.688C45.2344 183.094 46.5781 182.797 47.9844 182.797ZM66.1094 180.406H59.3359V174.242H66.1094V180.406ZM59.3359 183.453H66.1094V209H59.3359V183.453ZM97.1484 182.891C98.2734 182.891 99.3828 183.109 100.477 183.547C101.57 183.984 102.562 184.75 103.453 185.844C104.172 186.734 104.656 187.828 104.906 189.125C105.062 189.984 105.141 191.242 105.141 192.898L105.094 209H98.25V192.734C98.25 191.766 98.0938 190.969 97.7812 190.344C97.1875 189.156 96.0938 188.562 94.5 188.562C92.6562 188.562 91.3828 189.328 90.6797 190.859C90.3203 191.672 90.1406 192.648 90.1406 193.789V209H83.4141V193.789C83.4141 192.273 83.2578 191.172 82.9453 190.484C82.3828 189.25 81.2812 188.633 79.6406 188.633C77.7344 188.633 76.4531 189.25 75.7969 190.484C75.4375 191.188 75.2578 192.234 75.2578 193.625V209H68.4844V183.5H74.9766V187.227C75.8047 185.898 76.5859 184.953 77.3203 184.391C78.6172 183.391 80.2969 182.891 82.3594 182.891C84.3125 182.891 85.8906 183.32 87.0938 184.18C88.0625 184.977 88.7969 186 89.2969 187.25C90.1719 185.75 91.2578 184.648 92.5547 183.945C93.9297 183.242 95.4609 182.891 97.1484 182.891ZM117.383 188.281C115.836 188.281 114.633 188.766 113.773 189.734C112.93 190.703 112.398 192.016 112.18 193.672H122.562C122.453 191.906 121.914 190.57 120.945 189.664C119.992 188.742 118.805 188.281 117.383 188.281ZM117.383 182.773C119.508 182.773 121.422 183.172 123.125 183.969C124.828 184.766 126.234 186.023 127.344 187.742C128.344 189.258 128.992 191.016 129.289 193.016C129.461 194.188 129.531 195.875 129.5 198.078H112.016C112.109 200.641 112.914 202.438 114.43 203.469C115.352 204.109 116.461 204.43 117.758 204.43C119.133 204.43 120.25 204.039 121.109 203.258C121.578 202.836 121.992 202.25 122.352 201.5H129.172C129 203.016 128.211 204.555 126.805 206.117C124.617 208.602 121.555 209.844 117.617 209.844C114.367 209.844 111.5 208.797 109.016 206.703C106.531 204.609 105.289 201.203 105.289 196.484C105.289 192.062 106.406 188.672 108.641 186.312C110.891 183.953 113.805 182.773 117.383 182.773Z" fill="#F2F2F2"/>
<g style="mix-blend-mode:screen" opacity="0.4">
<path d="M63.5 172H130.273C138.407 172 146.192 168.697 151.845 162.849L316 -7" stroke="url(#paint0_linear)" stroke-width="10"/>
</g>
<circle cx="63" cy="171" r="10" fill="#F2F2F2"/>
<defs>
<linearGradient id="paint0_linear" x1="189.75" y1="-7" x2="189.75" y2="172" gradientUnits="userSpaceOnUse">
<stop stop-color="#F136EE"/>
<stop offset="1" stop-color="#FB5154"/>
</linearGradient>
</defs>
</svg>
