<svg width="27" height="15" viewBox="0 0 27 15" fill="none" xmlns="http://www.w3.org/2000/svg">
<path fill-rule="evenodd" clip-rule="evenodd" d="M17.1834 0.200059C16.7416 -0.131312 16.1148 -0.0417689 15.7834 0.400059C15.452 0.841887 15.5416 1.46869 15.9834 1.80006L22.1813 6.4485H1C0.447715 6.4485 0 6.89622 0 7.4485C0 8.00079 0.447715 8.4485 1 8.4485H22.181L15.9834 13.0967C15.5416 13.428 15.452 14.0548 15.7834 14.4967C16.1148 14.9385 16.7416 15.028 17.1834 14.6967L25.7812 8.24837C26.033 8.05951 26.1812 7.76312 26.1812 7.44837C26.1812 7.13361 26.033 6.83722 25.7812 6.64837L17.1834 0.200059Z" fill="black"/>
</svg>
