<svg width="105" height="28" viewBox="0 0 105 28" fill="none" xmlns="http://www.w3.org/2000/svg">
<path d="M13.5982 10.04H11.4682V14H9.8782V4.1H13.9132C14.9832 4.1 15.8282 4.365 16.4482 4.895C17.0682 5.415 17.3782 6.14 17.3782 7.07C17.3782 7.78 17.1932 8.375 16.8232 8.855C16.4632 9.325 15.9482 9.66 15.2782 9.86L17.9632 14H16.1182L13.5982 10.04ZM11.4682 8.705H13.7782C14.4282 8.705 14.9132 8.575 15.2332 8.315C15.5532 8.045 15.7132 7.635 15.7132 7.085C15.7132 6.535 15.5532 6.13 15.2332 5.87C14.9132 5.6 14.4282 5.465 13.7782 5.465H11.4682V8.705ZM27.3363 12.62V14H19.9563V4.1H27.1263V5.48H21.5613V8.33H25.9113V9.68H21.5613V12.62H27.3363ZM37.5217 11.375C37.2217 12.265 36.7067 12.95 35.9767 13.43C35.2567 13.91 34.4067 14.15 33.4267 14.15C32.4767 14.15 31.6517 13.945 30.9517 13.535C30.2517 13.125 29.7117 12.535 29.3317 11.765C28.9517 10.995 28.7617 10.09 28.7617 9.05C28.7617 8.01 28.9517 7.105 29.3317 6.335C29.7117 5.565 30.2517 4.975 30.9517 4.565C31.6517 4.155 32.4717 3.95 33.4117 3.95C34.4017 3.95 35.2317 4.155 35.9017 4.565C36.5817 4.975 37.0717 5.58 37.3717 6.38L35.8567 7.055C35.6567 6.465 35.3667 6.035 34.9867 5.765C34.6067 5.485 34.1117 5.345 33.5017 5.345C32.5717 5.345 31.8267 5.675 31.2667 6.335C30.7167 6.985 30.4417 7.89 30.4417 9.05C30.4417 10.22 30.7067 11.13 31.2367 11.78C31.7667 12.43 32.5017 12.755 33.4417 12.755C34.0817 12.755 34.6167 12.595 35.0467 12.275C35.4867 11.955 35.8017 11.485 35.9917 10.865L37.5217 11.375ZM43.6806 3.95C44.6306 3.95 45.4556 4.155 46.1556 4.565C46.8656 4.975 47.4106 5.565 47.7906 6.335C48.1706 7.105 48.3606 8.01 48.3606 9.05C48.3606 10.09 48.1706 10.995 47.7906 11.765C47.4106 12.535 46.8656 13.125 46.1556 13.535C45.4556 13.945 44.6306 14.15 43.6806 14.15C42.7306 14.15 41.9056 13.945 41.2056 13.535C40.5056 13.125 39.9656 12.535 39.5856 11.765C39.2056 10.995 39.0156 10.09 39.0156 9.05C39.0156 8.01 39.2056 7.105 39.5856 6.335C39.9656 5.565 40.5056 4.975 41.2056 4.565C41.9056 4.155 42.7306 3.95 43.6806 3.95ZM43.6806 5.345C42.7506 5.345 42.0206 5.67 41.4906 6.32C40.9606 6.97 40.6956 7.88 40.6956 9.05C40.6956 10.22 40.9606 11.13 41.4906 11.78C42.0206 12.43 42.7506 12.755 43.6806 12.755C44.6206 12.755 45.3556 12.43 45.8856 11.78C46.4156 11.13 46.6806 10.22 46.6806 9.05C46.6806 7.88 46.4156 6.97 45.8856 6.32C45.3556 5.67 44.6206 5.345 43.6806 5.345ZM54.4673 10.04H52.3373V14H50.7473V4.1H54.7823C55.8523 4.1 56.6973 4.365 57.3173 4.895C57.9373 5.415 58.2473 6.14 58.2473 7.07C58.2473 7.78 58.0623 8.375 57.6923 8.855C57.3323 9.325 56.8173 9.66 56.1473 9.86L58.8323 14H56.9873L54.4673 10.04ZM52.3373 8.705H54.6473C55.2973 8.705 55.7823 8.575 56.1023 8.315C56.4223 8.045 56.5823 7.635 56.5823 7.085C56.5823 6.535 56.4223 6.13 56.1023 5.87C55.7823 5.6 55.2973 5.465 54.6473 5.465H52.3373V8.705ZM64.3205 4.1C65.8805 4.1 67.0905 4.53 67.9505 5.39C68.8105 6.25 69.2405 7.47 69.2405 9.05C69.2405 10.63 68.8105 11.85 67.9505 12.71C67.0905 13.57 65.8805 14 64.3205 14H60.8255V4.1H64.3205ZM64.3205 12.635C65.3605 12.635 66.1605 12.325 66.7205 11.705C67.2805 11.075 67.5605 10.19 67.5605 9.05C67.5605 7.91 67.2805 7.03 66.7205 6.41C66.1605 5.78 65.3605 5.465 64.3205 5.465H62.4305V12.635H64.3205ZM73.2264 14H71.6214V4.1H73.2264V14ZM84.2774 14H82.3724L78.5474 7.76L77.5874 5.93H77.5724L77.6324 7.61V14H76.1624V4.1H78.0524L81.8624 10.325L82.8374 12.17H82.8524L82.7924 10.49V4.1H84.2774V14ZM95.5023 8.885V14H94.3173L94.2723 12.74C93.9823 13.19 93.5823 13.54 93.0723 13.79C92.5623 14.03 91.9523 14.15 91.2423 14.15C90.3223 14.15 89.5173 13.945 88.8273 13.535C88.1373 13.125 87.6023 12.54 87.2223 11.78C86.8423 11.01 86.6523 10.1 86.6523 9.05C86.6523 8.01 86.8473 7.11 87.2373 6.35C87.6273 5.58 88.1773 4.99 88.8873 4.58C89.5973 4.16 90.4223 3.95 91.3623 3.95C92.3823 3.95 93.2223 4.14 93.8823 4.52C94.5423 4.9 95.0623 5.49 95.4423 6.29L93.9723 6.995C93.7823 6.455 93.4623 6.045 93.0123 5.765C92.5623 5.485 92.0223 5.345 91.3923 5.345C90.4523 5.345 89.7073 5.67 89.1573 6.32C88.6073 6.97 88.3323 7.88 88.3323 9.05C88.3323 10.24 88.5923 11.16 89.1123 11.81C89.6423 12.45 90.4123 12.77 91.4223 12.77C92.2123 12.77 92.8523 12.575 93.3423 12.185C93.8323 11.795 94.0773 11.23 94.0773 10.49V10.205H91.0473V8.885H95.5023Z" fill="#4F4F4F"/>
<rect x="30" y="26" width="45" height="2" fill="#C4C4C4"/>
</svg>
