<svg width="231" height="80" viewBox="0 0 231 80" fill="none" xmlns="http://www.w3.org/2000/svg">
<g opacity="0.7">
<g style="mix-blend-mode:screen">
<rect y="5" width="5" height="70" fill="#828282"/>
</g>
<g style="mix-blend-mode:screen">
<rect x="10" y="15" width="5" height="50" fill="#828282"/>
</g>
<g style="mix-blend-mode:screen">
<rect x="20" y="25" width="5" height="30" fill="#828282"/>
</g>
<g style="mix-blend-mode:screen">
<rect x="30" width="5" height="80" fill="#828282"/>
</g>
<g style="mix-blend-mode:screen">
<rect x="40" y="10" width="5" height="60" fill="#828282"/>
</g>
<g style="mix-blend-mode:screen">
<rect x="50" y="5" width="5" height="70" fill="#828282"/>
</g>
<g style="mix-blend-mode:screen">
<rect x="60" y="5" width="5" height="70" fill="#828282"/>
</g>
<g style="mix-blend-mode:screen">
<rect x="70" y="15" width="5" height="50" fill="#828282"/>
</g>
<g style="mix-blend-mode:screen">
<rect x="80" y="25" width="5" height="30" fill="#828282"/>
</g>
<g style="mix-blend-mode:screen">
<rect x="90" width="5" height="80" fill="#828282"/>
</g>
<g style="mix-blend-mode:screen">
<rect x="100" y="10" width="5" height="60" fill="#828282"/>
</g>
<g style="mix-blend-mode:screen">
<rect x="110" y="5" width="5" height="70" fill="#828282"/>
</g>
<g style="mix-blend-mode:screen">
<rect x="118" y="5" width="5" height="70" fill="#828282"/>
</g>
<g style="mix-blend-mode:screen">
<rect x="128" y="15" width="5" height="50" fill="#828282"/>
</g>
<g style="mix-blend-mode:screen">
<rect x="138" y="25" width="5" height="30" fill="#828282"/>
</g>
<g style="mix-blend-mode:screen">
<rect x="148" width="5" height="80" fill="#828282"/>
</g>
<g style="mix-blend-mode:screen">
<rect x="158" y="10" width="5" height="60" fill="#828282"/>
</g>
<g style="mix-blend-mode:screen">
<rect x="168" y="5" width="5" height="70" fill="#828282"/>
</g>
<g style="mix-blend-mode:screen">
<rect x="176" y="5" width="5" height="70" fill="#828282"/>
</g>
<g style="mix-blend-mode:screen">
<rect x="186" y="15" width="5" height="50" fill="#828282"/>
</g>
<g style="mix-blend-mode:screen">
<rect x="196" y="25" width="5" height="30" fill="#828282"/>
</g>
<g style="mix-blend-mode:screen">
<rect x="206" width="5" height="80" fill="#828282"/>
</g>
<g style="mix-blend-mode:screen">
<rect x="216" y="10" width="5" height="60" fill="#828282"/>
</g>
<g style="mix-blend-mode:screen">
<rect x="226" y="5" width="5" height="70" fill="#828282"/>
</g>
</g>
</svg>
