<svg width="414" height="40" viewBox="0 0 414 40" fill="none" xmlns="http://www.w3.org/2000/svg">
<path d="M54.064 19.952C54.064 21.3387 53.696 22.3893 52.96 23.104C52.224 23.808 51.152 24.16 49.744 24.16C48.336 24.16 47.264 23.808 46.528 23.104C45.792 22.3893 45.424 21.3387 45.424 19.952V13.44H47.152V19.744C47.152 20.7467 47.36 21.488 47.776 21.968C48.2027 22.4373 48.8587 22.672 49.744 22.672C50.6293 22.672 51.28 22.4373 51.696 21.968C52.1227 21.488 52.336 20.7467 52.336 19.744V13.44H54.064V19.952ZM59.599 24.16C58.7883 24.16 58.0683 24.0213 57.439 23.744C56.8203 23.4667 56.351 23.0453 56.031 22.48L57.183 21.488C57.3857 21.9467 57.7003 22.2827 58.127 22.496C58.5537 22.7093 59.0657 22.816 59.663 22.816C60.207 22.816 60.6283 22.7307 60.927 22.56C61.2257 22.3787 61.375 22.144 61.375 21.856C61.375 21.6 61.2363 21.3973 60.959 21.248C60.6817 21.088 60.2017 20.9387 59.519 20.8C58.335 20.576 57.503 20.2773 57.023 19.904C56.543 19.5307 56.303 19.0027 56.303 18.32C56.303 17.8827 56.4363 17.4773 56.703 17.104C56.9697 16.72 57.3537 16.416 57.855 16.192C58.367 15.9573 58.9697 15.84 59.663 15.84C60.5483 15.84 61.2577 15.9893 61.791 16.288C62.3243 16.576 62.735 17.0293 63.023 17.648L61.807 18.544C61.615 18.0747 61.343 17.7333 60.991 17.52C60.6497 17.296 60.2123 17.184 59.679 17.184C59.199 17.184 58.799 17.2853 58.479 17.488C58.1697 17.68 58.015 17.904 58.015 18.16C58.015 18.448 58.1537 18.6773 58.431 18.848C58.719 19.0187 59.2363 19.1733 59.983 19.312C61.1137 19.5147 61.9137 19.8027 62.383 20.176C62.8523 20.5493 63.087 21.072 63.087 21.744C63.087 22.4587 62.7777 23.04 62.159 23.488C61.5403 23.936 60.687 24.16 59.599 24.16ZM72.3081 19.76C72.3081 20.0693 72.2868 20.3627 72.2441 20.64H66.3881C66.4841 21.344 66.7348 21.8827 67.1401 22.256C67.5455 22.6187 68.0681 22.8 68.7081 22.8C69.2308 22.8 69.6628 22.7093 70.0041 22.528C70.3561 22.336 70.5961 22.064 70.7241 21.712L72.1481 22.304C71.5508 23.5413 70.4041 24.16 68.7081 24.16C67.4495 24.16 66.4628 23.792 65.7481 23.056C65.0441 22.32 64.6921 21.3013 64.6921 20C64.6921 18.688 65.0335 17.6693 65.7161 16.944C66.3988 16.208 67.3588 15.84 68.5961 15.84C69.7695 15.84 70.6815 16.1973 71.3321 16.912C71.9828 17.6267 72.3081 18.576 72.3081 19.76ZM68.5961 17.2C67.9775 17.2 67.4761 17.3813 67.0921 17.744C66.7188 18.1067 66.4841 18.6347 66.3881 19.328H70.7081C70.6228 18.656 70.3935 18.1333 70.0201 17.76C69.6575 17.3867 69.1828 17.2 68.5961 17.2ZM83.0084 24.944C82.6564 25.8613 82.2564 26.5067 81.8084 26.88C81.3604 27.2533 80.7737 27.44 80.0484 27.44C79.6324 27.44 79.2697 27.3867 78.9604 27.28C78.6617 27.184 78.395 27.024 78.1604 26.8L78.6564 25.488C78.9764 25.872 79.4137 26.064 79.9684 26.064C80.2884 26.064 80.555 25.9787 80.7684 25.808C80.9924 25.648 81.1897 25.3493 81.3604 24.912L81.7124 24.048L80.8804 22.064L78.3844 16H80.3044L82.0644 21.024L82.5284 22.528L83.0724 20.88L84.7364 16H86.5124L83.0084 24.944ZM91.5199 15.84C92.7679 15.84 93.7439 16.208 94.4479 16.944C95.1519 17.68 95.5039 18.6987 95.5039 20C95.5039 21.3013 95.1519 22.32 94.4479 23.056C93.7439 23.792 92.7679 24.16 91.5199 24.16C90.2719 24.16 89.2959 23.792 88.5919 23.056C87.8879 22.32 87.5359 21.3013 87.5359 20C87.5359 18.6987 87.8879 17.68 88.5919 16.944C89.2959 16.208 90.2719 15.84 91.5199 15.84ZM91.5199 17.184C90.7945 17.184 90.2345 17.4293 89.8399 17.92C89.4559 18.4 89.2639 19.0933 89.2639 20C89.2639 20.9067 89.4559 21.6053 89.8399 22.096C90.2345 22.576 90.7945 22.816 91.5199 22.816C92.2452 22.816 92.8052 22.5707 93.1999 22.08C93.5945 21.5893 93.7919 20.896 93.7919 20C93.7919 19.104 93.5945 18.4107 93.1999 17.92C92.8052 17.4293 92.2452 17.184 91.5199 17.184ZM104.951 16V24H103.431L103.367 22.704C102.823 23.6747 101.874 24.16 100.519 24.16C99.655 24.16 98.9563 23.9253 98.423 23.456C97.9003 22.976 97.639 22.2453 97.639 21.264V16H99.351V20.816C99.351 21.52 99.4897 22.0213 99.767 22.32C100.044 22.608 100.455 22.752 100.999 22.752C101.65 22.752 102.183 22.5493 102.599 22.144C103.026 21.728 103.239 21.12 103.239 20.32V16H104.951ZM111.737 15.84C112.111 15.84 112.404 15.8933 112.617 16L112.345 17.568C112.1 17.4293 111.764 17.36 111.337 17.36C110.996 17.36 110.671 17.4507 110.361 17.632C110.063 17.8133 109.812 18.0853 109.609 18.448C109.417 18.8107 109.321 19.248 109.321 19.76V24H107.609V16H109.065L109.209 17.44C109.657 16.3733 110.5 15.84 111.737 15.84ZM128.742 15.84C129.275 15.84 129.766 15.952 130.214 16.176C130.662 16.3893 131.019 16.72 131.286 17.168C131.552 17.616 131.686 18.1653 131.686 18.816V24H129.974V19.088C129.974 18.4587 129.824 17.9947 129.526 17.696C129.227 17.3973 128.827 17.248 128.326 17.248C127.739 17.248 127.243 17.4613 126.838 17.888C126.443 18.3147 126.246 18.9013 126.246 19.648V24H124.534V19.088C124.534 18.4587 124.384 17.9947 124.086 17.696C123.787 17.3973 123.387 17.248 122.886 17.248C122.544 17.248 122.214 17.3387 121.894 17.52C121.574 17.6907 121.312 17.9627 121.11 18.336C120.907 18.7093 120.806 19.1787 120.806 19.744V24H119.094V16H120.614L120.694 17.328C120.96 16.8373 121.323 16.4693 121.782 16.224C122.24 15.968 122.742 15.84 123.286 15.84C123.883 15.84 124.422 15.9787 124.902 16.256C125.392 16.5227 125.755 16.9173 125.99 17.44C126.235 16.9173 126.608 16.5227 127.11 16.256C127.622 15.9787 128.166 15.84 128.742 15.84ZM137.801 15.84C139.049 15.84 140.025 16.208 140.729 16.944C141.433 17.68 141.785 18.6987 141.785 20C141.785 21.3013 141.433 22.32 140.729 23.056C140.025 23.792 139.049 24.16 137.801 24.16C136.553 24.16 135.577 23.792 134.873 23.056C134.169 22.32 133.817 21.3013 133.817 20C133.817 18.6987 134.169 17.68 134.873 16.944C135.577 16.208 136.553 15.84 137.801 15.84ZM137.801 17.184C137.076 17.184 136.516 17.4293 136.121 17.92C135.737 18.4 135.545 19.0933 135.545 20C135.545 20.9067 135.737 21.6053 136.121 22.096C136.516 22.576 137.076 22.816 137.801 22.816C138.526 22.816 139.086 22.5707 139.481 22.08C139.876 21.5893 140.073 20.896 140.073 20C140.073 19.104 139.876 18.4107 139.481 17.92C139.086 17.4293 138.526 17.184 137.801 17.184ZM148.288 15.84C149.387 15.84 150.251 16.2133 150.88 16.96C151.51 17.696 151.824 18.7147 151.824 20.016C151.824 21.3173 151.51 22.336 150.88 23.072C150.251 23.7973 149.387 24.16 148.288 24.16C147.659 24.16 147.104 24.0107 146.624 23.712C146.155 23.4133 145.803 23.0133 145.568 22.512L145.488 24H143.984V12.4H145.696V17.28C145.942 16.832 146.288 16.48 146.736 16.224C147.195 15.968 147.712 15.84 148.288 15.84ZM147.904 22.784C148.598 22.784 149.136 22.5387 149.52 22.048C149.915 21.5573 150.112 20.8747 150.112 20C150.112 19.1253 149.915 18.448 149.52 17.968C149.136 17.4773 148.598 17.232 147.904 17.232C147.254 17.232 146.731 17.4507 146.336 17.888C145.952 18.3253 145.739 18.928 145.696 19.696V20.304C145.739 21.0827 145.952 21.6907 146.336 22.128C146.731 22.5653 147.254 22.784 147.904 22.784ZM154.911 14.656C154.548 14.656 154.265 14.5653 154.063 14.384C153.86 14.192 153.759 13.9253 153.759 13.584C153.759 13.2427 153.86 12.9813 154.063 12.8C154.265 12.6187 154.548 12.528 154.911 12.528C155.273 12.528 155.551 12.6187 155.743 12.8C155.945 12.9813 156.047 13.2427 156.047 13.584C156.047 13.9253 155.945 14.192 155.743 14.384C155.551 14.5653 155.273 14.656 154.911 14.656ZM155.759 24H154.047V16H155.759V24ZM160.101 21.664C160.101 22.0587 160.16 22.336 160.277 22.496C160.395 22.6453 160.613 22.72 160.933 22.72C161.136 22.72 161.307 22.7093 161.445 22.688C161.595 22.656 161.776 22.5973 161.989 22.512L161.797 23.888C161.435 24.0693 160.992 24.16 160.469 24.16C159.755 24.16 159.227 23.9787 158.885 23.616C158.555 23.2533 158.389 22.6827 158.389 21.904V12.4H160.101V21.664ZM170.574 19.76C170.574 20.0693 170.552 20.3627 170.51 20.64H164.654C164.75 21.344 165 21.8827 165.406 22.256C165.811 22.6187 166.334 22.8 166.974 22.8C167.496 22.8 167.928 22.7093 168.27 22.528C168.622 22.336 168.862 22.064 168.99 21.712L170.414 22.304C169.816 23.5413 168.67 24.16 166.974 24.16C165.715 24.16 164.728 23.792 164.014 23.056C163.31 22.32 162.958 21.3013 162.958 20C162.958 18.688 163.299 17.6693 163.982 16.944C164.664 16.208 165.624 15.84 166.862 15.84C168.035 15.84 168.947 16.1973 169.598 16.912C170.248 17.6267 170.574 18.576 170.574 19.76ZM166.862 17.2C166.243 17.2 165.742 17.3813 165.358 17.744C164.984 18.1067 164.75 18.6347 164.654 19.328H168.974C168.888 18.656 168.659 18.1333 168.286 17.76C167.923 17.3867 167.448 17.2 166.862 17.2ZM185.33 12.4V24H183.826L183.73 22.576C183.495 23.056 183.138 23.44 182.658 23.728C182.188 24.016 181.65 24.16 181.042 24.16C179.943 24.16 179.074 23.7973 178.434 23.072C177.804 22.336 177.49 21.3173 177.49 20.016C177.49 18.7147 177.804 17.696 178.434 16.96C179.074 16.2133 179.943 15.84 181.042 15.84C181.628 15.84 182.146 15.9733 182.594 16.24C183.042 16.496 183.383 16.848 183.618 17.296V12.4H185.33ZM181.426 22.784C182.098 22.784 182.631 22.544 183.026 22.064C183.42 21.584 183.618 20.928 183.618 20.096V19.904C183.618 19.072 183.42 18.4213 183.026 17.952C182.631 17.472 182.098 17.232 181.426 17.232C180.732 17.232 180.188 17.4773 179.794 17.968C179.41 18.448 179.218 19.1253 179.218 20C179.218 20.8747 179.41 21.5573 179.794 22.048C180.188 22.5387 180.732 22.784 181.426 22.784ZM195.136 19.76C195.136 20.0693 195.115 20.3627 195.072 20.64H189.216C189.312 21.344 189.563 21.8827 189.968 22.256C190.374 22.6187 190.896 22.8 191.536 22.8C192.059 22.8 192.491 22.7093 192.832 22.528C193.184 22.336 193.424 22.064 193.552 21.712L194.976 22.304C194.379 23.5413 193.232 24.16 191.536 24.16C190.278 24.16 189.291 23.792 188.576 23.056C187.872 22.32 187.52 21.3013 187.52 20C187.52 18.688 187.862 17.6693 188.544 16.944C189.227 16.208 190.187 15.84 191.424 15.84C192.598 15.84 193.51 16.1973 194.16 16.912C194.811 17.6267 195.136 18.576 195.136 19.76ZM191.424 17.2C190.806 17.2 190.304 17.3813 189.92 17.744C189.547 18.1067 189.312 18.6347 189.216 19.328H193.536C193.451 18.656 193.222 18.1333 192.848 17.76C192.486 17.3867 192.011 17.2 191.424 17.2ZM204.103 16L200.919 24H199.047L195.847 16H197.735L199.991 22.608L202.311 16H204.103ZM206.426 14.656C206.064 14.656 205.781 14.5653 205.578 14.384C205.376 14.192 205.274 13.9253 205.274 13.584C205.274 13.2427 205.376 12.9813 205.578 12.8C205.781 12.6187 206.064 12.528 206.426 12.528C206.789 12.528 207.066 12.6187 207.258 12.8C207.461 12.9813 207.562 13.2427 207.562 13.584C207.562 13.9253 207.461 14.192 207.258 14.384C207.066 14.5653 206.789 14.656 206.426 14.656ZM207.274 24H205.562V16H207.274V24ZM213.473 15.84C215.222 15.84 216.38 16.5867 216.945 18.08L215.345 18.72C215.068 17.7067 214.444 17.2 213.473 17.2C212.758 17.2 212.204 17.4453 211.809 17.936C211.414 18.4267 211.217 19.12 211.217 20.016C211.217 20.912 211.414 21.6 211.809 22.08C212.204 22.56 212.758 22.8 213.473 22.8C214.017 22.8 214.454 22.6667 214.785 22.4C215.116 22.1333 215.334 21.7493 215.441 21.248L217.009 21.776C216.774 22.5227 216.358 23.1093 215.761 23.536C215.164 23.952 214.412 24.16 213.505 24.16C212.246 24.16 211.26 23.792 210.545 23.056C209.841 22.32 209.489 21.3013 209.489 20C209.489 18.6987 209.841 17.68 210.545 16.944C211.249 16.208 212.225 15.84 213.473 15.84ZM226.168 19.76C226.168 20.0693 226.146 20.3627 226.104 20.64H220.248C220.344 21.344 220.594 21.8827 221 22.256C221.405 22.6187 221.928 22.8 222.568 22.8C223.09 22.8 223.522 22.7093 223.864 22.528C224.216 22.336 224.456 22.064 224.584 21.712L226.008 22.304C225.41 23.5413 224.264 24.16 222.568 24.16C221.309 24.16 220.322 23.792 219.608 23.056C218.904 22.32 218.552 21.3013 218.552 20C218.552 18.688 218.893 17.6693 219.576 16.944C220.258 16.208 221.218 15.84 222.456 15.84C223.629 15.84 224.541 16.1973 225.192 16.912C225.842 17.6267 226.168 18.576 226.168 19.76ZM222.456 17.2C221.837 17.2 221.336 17.3813 220.952 17.744C220.578 18.1067 220.344 18.6347 220.248 19.328H224.568C224.482 18.656 224.253 18.1333 223.88 17.76C223.517 17.3867 223.042 17.2 222.456 17.2ZM238.45 23.472C238.194 23.6853 237.879 23.856 237.506 23.984C237.143 24.1013 236.748 24.16 236.322 24.16C235.586 24.16 234.994 23.9787 234.546 23.616C234.108 23.2427 233.884 22.6667 233.874 21.888V17.344H232.354V16H233.874V14.128L235.586 13.648V16H238.386V17.344H235.586V21.6C235.586 21.984 235.687 22.272 235.89 22.464C236.103 22.6453 236.391 22.736 236.754 22.736C237.244 22.736 237.676 22.5653 238.05 22.224L238.45 23.472ZM243.567 15.84C244.815 15.84 245.791 16.208 246.495 16.944C247.199 17.68 247.551 18.6987 247.551 20C247.551 21.3013 247.199 22.32 246.495 23.056C245.791 23.792 244.815 24.16 243.567 24.16C242.319 24.16 241.343 23.792 240.639 23.056C239.935 22.32 239.583 21.3013 239.583 20C239.583 18.6987 239.935 17.68 240.639 16.944C241.343 16.208 242.319 15.84 243.567 15.84ZM243.567 17.184C242.841 17.184 242.281 17.4293 241.887 17.92C241.503 18.4 241.311 19.0933 241.311 20C241.311 20.9067 241.503 21.6053 241.887 22.096C242.281 22.576 242.841 22.816 243.567 22.816C244.292 22.816 244.852 22.5707 245.247 22.08C245.641 21.5893 245.839 20.896 245.839 20C245.839 19.104 245.641 18.4107 245.247 17.92C244.852 17.4293 244.292 17.184 243.567 17.184ZM259.081 15.84C259.454 15.84 259.748 15.8933 259.961 16L259.689 17.568C259.444 17.4293 259.108 17.36 258.681 17.36C258.34 17.36 258.014 17.4507 257.705 17.632C257.406 17.8133 257.156 18.0853 256.953 18.448C256.761 18.8107 256.665 19.248 256.665 19.76V24H254.953V16H256.409L256.553 17.44C257.001 16.3733 257.844 15.84 259.081 15.84ZM268.527 19.76C268.527 20.0693 268.506 20.3627 268.463 20.64H262.607C262.703 21.344 262.954 21.8827 263.359 22.256C263.764 22.6187 264.287 22.8 264.927 22.8C265.45 22.8 265.882 22.7093 266.223 22.528C266.575 22.336 266.815 22.064 266.943 21.712L268.367 22.304C267.77 23.5413 266.623 24.16 264.927 24.16C263.668 24.16 262.682 23.792 261.967 23.056C261.263 22.32 260.911 21.3013 260.911 20C260.911 18.688 261.252 17.6693 261.935 16.944C262.618 16.208 263.578 15.84 264.815 15.84C265.988 15.84 266.9 16.1973 267.551 16.912C268.202 17.6267 268.527 18.576 268.527 19.76ZM264.815 17.2C264.196 17.2 263.695 17.3813 263.311 17.744C262.938 18.1067 262.703 18.6347 262.607 19.328H266.927C266.842 18.656 266.612 18.1333 266.239 17.76C265.876 17.3867 265.402 17.2 264.815 17.2ZM274.192 15.84C275.941 15.84 277.098 16.5867 277.664 18.08L276.064 18.72C275.786 17.7067 275.162 17.2 274.192 17.2C273.477 17.2 272.922 17.4453 272.528 17.936C272.133 18.4267 271.936 19.12 271.936 20.016C271.936 20.912 272.133 21.6 272.528 22.08C272.922 22.56 273.477 22.8 274.192 22.8C274.736 22.8 275.173 22.6667 275.504 22.4C275.834 22.1333 276.053 21.7493 276.16 21.248L277.728 21.776C277.493 22.5227 277.077 23.1093 276.48 23.536C275.882 23.952 275.13 24.16 274.224 24.16C272.965 24.16 271.978 23.792 271.264 23.056C270.56 22.32 270.208 21.3013 270.208 20C270.208 18.6987 270.56 17.68 271.264 16.944C271.968 16.208 272.944 15.84 274.192 15.84ZM283.254 15.84C284.502 15.84 285.478 16.208 286.182 16.944C286.886 17.68 287.238 18.6987 287.238 20C287.238 21.3013 286.886 22.32 286.182 23.056C285.478 23.792 284.502 24.16 283.254 24.16C282.006 24.16 281.03 23.792 280.326 23.056C279.622 22.32 279.27 21.3013 279.27 20C279.27 18.6987 279.622 17.68 280.326 16.944C281.03 16.208 282.006 15.84 283.254 15.84ZM283.254 17.184C282.529 17.184 281.969 17.4293 281.574 17.92C281.19 18.4 280.998 19.0933 280.998 20C280.998 20.9067 281.19 21.6053 281.574 22.096C281.969 22.576 282.529 22.816 283.254 22.816C283.98 22.816 284.54 22.5707 284.934 22.08C285.329 21.5893 285.526 20.896 285.526 20C285.526 19.104 285.329 18.4107 284.934 17.92C284.54 17.4293 283.98 17.184 283.254 17.184ZM293.565 15.84C293.939 15.84 294.232 15.8933 294.445 16L294.173 17.568C293.928 17.4293 293.592 17.36 293.165 17.36C292.824 17.36 292.499 17.4507 292.189 17.632C291.891 17.8133 291.64 18.0853 291.437 18.448C291.245 18.8107 291.149 19.248 291.149 19.76V24H289.437V16H290.893L291.037 17.44C291.485 16.3733 292.328 15.84 293.565 15.84ZM303.267 12.4V24H301.763L301.667 22.576C301.433 23.056 301.075 23.44 300.595 23.728C300.126 24.016 299.587 24.16 298.979 24.16C297.881 24.16 297.011 23.7973 296.371 23.072C295.742 22.336 295.427 21.3173 295.427 20.016C295.427 18.7147 295.742 17.696 296.371 16.96C297.011 16.2133 297.881 15.84 298.979 15.84C299.566 15.84 300.083 15.9733 300.531 16.24C300.979 16.496 301.321 16.848 301.555 17.296V12.4H303.267ZM299.363 22.784C300.035 22.784 300.569 22.544 300.963 22.064C301.358 21.584 301.555 20.928 301.555 20.096V19.904C301.555 19.072 301.358 18.4213 300.963 17.952C300.569 17.472 300.035 17.232 299.363 17.232C298.67 17.232 298.126 17.4773 297.731 17.968C297.347 18.448 297.155 19.1253 297.155 20C297.155 20.8747 297.347 21.5573 297.731 22.048C298.126 22.5387 298.67 22.784 299.363 22.784ZM316.059 23.472C315.803 23.6853 315.488 23.856 315.115 23.984C314.752 24.1013 314.358 24.16 313.931 24.16C313.195 24.16 312.603 23.9787 312.155 23.616C311.718 23.2427 311.494 22.6667 311.483 21.888V17.344H309.963V16H311.483V14.128L313.195 13.648V16H315.995V17.344H313.195V21.6C313.195 21.984 313.296 22.272 313.499 22.464C313.712 22.6453 314 22.736 314.363 22.736C314.854 22.736 315.286 22.5653 315.659 22.224L316.059 23.472ZM321.176 15.84C322.424 15.84 323.4 16.208 324.104 16.944C324.808 17.68 325.16 18.6987 325.16 20C325.16 21.3013 324.808 22.32 324.104 23.056C323.4 23.792 322.424 24.16 321.176 24.16C319.928 24.16 318.952 23.792 318.248 23.056C317.544 22.32 317.192 21.3013 317.192 20C317.192 18.6987 317.544 17.68 318.248 16.944C318.952 16.208 319.928 15.84 321.176 15.84ZM321.176 17.184C320.451 17.184 319.891 17.4293 319.496 17.92C319.112 18.4 318.92 19.0933 318.92 20C318.92 20.9067 319.112 21.6053 319.496 22.096C319.891 22.576 320.451 22.816 321.176 22.816C321.901 22.816 322.461 22.5707 322.856 22.08C323.251 21.5893 323.448 20.896 323.448 20C323.448 19.104 323.251 18.4107 322.856 17.92C322.461 17.4293 321.901 17.184 321.176 17.184ZM334.767 12.4V24H333.263L333.167 22.576C332.933 23.056 332.575 23.44 332.095 23.728C331.626 24.016 331.087 24.16 330.479 24.16C329.381 24.16 328.511 23.7973 327.871 23.072C327.242 22.336 326.927 21.3173 326.927 20.016C326.927 18.7147 327.242 17.696 327.871 16.96C328.511 16.2133 329.381 15.84 330.479 15.84C331.066 15.84 331.583 15.9733 332.031 16.24C332.479 16.496 332.821 16.848 333.055 17.296V12.4H334.767ZM330.863 22.784C331.535 22.784 332.069 22.544 332.463 22.064C332.858 21.584 333.055 20.928 333.055 20.096V19.904C333.055 19.072 332.858 18.4213 332.463 17.952C332.069 17.472 331.535 17.232 330.863 17.232C330.17 17.232 329.626 17.4773 329.231 17.968C328.847 18.448 328.655 19.1253 328.655 20C328.655 20.8747 328.847 21.5573 329.231 22.048C329.626 22.5387 330.17 22.784 330.863 22.784ZM344.334 22.88C344.568 22.88 344.766 22.8587 344.926 22.816L344.814 23.968C344.526 24.096 344.195 24.16 343.822 24.16C343.363 24.16 342.995 24.0693 342.718 23.888C342.451 23.7067 342.275 23.4027 342.19 22.976C341.944 23.3493 341.582 23.6427 341.102 23.856C340.622 24.0587 340.083 24.16 339.486 24.16C338.707 24.16 338.078 23.9787 337.598 23.616C337.118 23.2533 336.878 22.736 336.878 22.064C336.878 21.4347 337.139 20.9067 337.662 20.48C338.184 20.0427 338.963 19.7333 339.998 19.552L342.03 19.2V18.768C342.03 18.2773 341.886 17.8933 341.598 17.616C341.31 17.328 340.91 17.184 340.398 17.184C339.342 17.184 338.654 17.664 338.334 18.624L337.006 17.92C337.198 17.28 337.587 16.7733 338.174 16.4C338.771 16.0267 339.502 15.84 340.366 15.84C341.4 15.84 342.222 16.08 342.83 16.56C343.438 17.04 343.742 17.744 343.742 18.672V22.288C343.742 22.4907 343.784 22.64 343.87 22.736C343.966 22.832 344.12 22.88 344.334 22.88ZM339.854 22.864C340.43 22.864 340.936 22.7253 341.374 22.448C341.811 22.1707 342.03 21.8027 342.03 21.344V20.384L340.286 20.736C339.731 20.8427 339.32 20.992 339.054 21.184C338.787 21.376 338.654 21.632 338.654 21.952C338.654 22.2507 338.755 22.48 338.958 22.64C339.171 22.7893 339.47 22.864 339.854 22.864ZM349.758 24.944C349.406 25.8613 349.006 26.5067 348.558 26.88C348.11 27.2533 347.524 27.44 346.798 27.44C346.382 27.44 346.02 27.3867 345.71 27.28C345.412 27.184 345.145 27.024 344.91 26.8L345.406 25.488C345.726 25.872 346.164 26.064 346.718 26.064C347.038 26.064 347.305 25.9787 347.518 25.808C347.742 25.648 347.94 25.3493 348.11 24.912L348.462 24.048L347.63 22.064L345.134 16H347.054L348.814 21.024L349.278 22.528L349.822 20.88L351.486 16H353.262L349.758 24.944ZM356.605 17.664L356.381 20.64H355.037L354.813 17.664V13.44H356.605V17.664ZM355.709 21.888C356.071 21.888 356.359 21.9947 356.573 22.208C356.797 22.4107 356.909 22.6827 356.909 23.024C356.909 23.3653 356.802 23.6373 356.589 23.84C356.375 24.0427 356.082 24.144 355.709 24.144C355.346 24.144 355.058 24.0427 354.845 23.84C354.631 23.6373 354.525 23.3653 354.525 23.024C354.525 22.6827 354.631 22.4107 354.845 22.208C355.058 21.9947 355.346 21.888 355.709 21.888Z" fill="#F2F2F2"/>
<g clip-path="url(#clip0)">
<path fill-rule="evenodd" clip-rule="evenodd" d="M10.5736 8.85598C9.61778 9.37864 8.72137 9.96398 7.75778 10.5066C7.0267 10.9186 4.67716 12.2333 4.29224 12.6106L3.74845 13.1733C2.6867 14.2786 2.01762 16.5853 2.01762 18.3053C2.01762 19.9386 1.99178 20.8293 2.59241 22.38C2.98766 23.4013 3.62574 24.1933 4.4072 24.8386C6.28528 26.388 8.39199 26.2946 10.5723 26.2946V28.656C10.5723 29.064 10.8952 29.6346 11.1045 29.8506C11.2182 29.968 11.4687 30.1373 11.616 30.22C11.811 30.3306 12.0203 30.3973 12.3019 30.3986H12.3161H25.123C25.5582 30.3986 26.0685 30.0613 26.2958 29.8106C26.5606 29.5186 26.8112 29.0786 26.8112 28.544V25.788H27.4105C29.4139 25.788 29.6696 22.4693 27.1922 22.4693H24.4681C22.9426 22.4693 22.4944 23.8666 22.9245 24.9066C23.0253 25.148 23.0912 25.184 23.2552 25.3533C23.808 25.9253 24.5339 25.788 25.4497 25.788V26.8H11.935V12.9626C11.935 12.804 13.175 11.9906 13.4618 11.7826L16.1162 9.68398C16.7891 9.09864 17.4388 8.45598 17.4388 7.45064C17.4388 6.68131 16.8705 6.04398 16.1317 6.04398C15.2598 6.04398 14.5494 6.60264 13.9332 6.92531L11.935 8.06798V4.69331H25.4497V10.9373C24.9034 10.9373 23.9269 10.9506 23.5768 11.1413C22.258 11.864 22.6197 14.2546 24.2511 14.2546H27.5745C28.2217 14.2546 28.9372 13.572 28.9372 12.9053C28.9372 12.2493 28.9863 11.76 28.347 11.264C27.9465 10.9533 27.3963 10.936 26.8125 10.936V3.45598C26.8125 2.91998 26.5619 2.48131 26.2971 2.18798C26.0697 1.93731 25.5582 1.59998 25.123 1.59998H12.3174C11.6896 1.59998 11.1859 2.01198 10.9146 2.40131C10.5142 2.97731 10.5736 3.37198 10.5736 4.29998C10.5736 5.81864 10.5736 7.33731 10.5736 8.85598ZM22.7799 16.2813C22.7799 15.568 23.4683 14.8186 24.1426 14.8186H27.5758C27.9982 14.8186 28.3844 15.0973 28.5988 15.3373C29.4139 16.2426 28.8262 18.0813 27.6301 18.0813H24.1968C23.4089 18.0813 22.7799 17.3706 22.7799 16.5626V16.2813ZM22.7799 20.1066C22.7799 19.3706 23.458 18.6426 24.3066 18.6426H27.466C28.985 18.6426 29.3803 20.664 28.4684 21.5346C28.1312 21.856 27.7915 21.9613 27.1935 21.9613H24.4694C23.9734 21.9613 23.5497 21.812 23.2823 21.556C22.7941 21.0933 22.7799 20.6813 22.7799 20.1066ZM18.693 27.5346C19.1994 27.5346 19.6101 27.9586 19.6101 28.4813C19.6101 29.0053 19.1994 29.428 18.693 29.428C18.1854 29.428 17.776 29.0053 17.776 28.4813C17.776 27.96 18.1854 27.5346 18.693 27.5346ZM16.7271 2.98131H20.6577C20.7881 2.98131 20.8953 3.09198 20.8953 3.22798C20.8953 3.36398 20.7881 3.47331 20.6577 3.47331H16.7271C16.5967 3.47331 16.4895 3.36264 16.4895 3.22798C16.4907 3.09198 16.598 2.98131 16.7271 2.98131Z" fill="#F2F2F2"/>
</g>
<defs>
<clipPath id="clip0">
<rect width="31" height="40" fill="white"/>
</clipPath>
</defs>
</svg>
